<svg xmlns="http://www.w3.org/2000/svg"
x="0px" y="0px" width="27" height="19">
  <path
    transform="scale(0.5)"
    style="fill:white; stroke:black; stroke-width:1.5;"
    d="M46.5,4 a1.5,1.5,0,0,0,0,-4 H9 a1.5,1.5,0,0,0,0,4 H26 v6 H8.74 a4.50324,4.50324,0,1,0-.261,3.5918 L17,17 v2 h.00671 c-.00061.04443-.00671.0874-.00671.13184 A8.88436,8.88436,0,0,0,25.48218,27.978 c.01977.00293.03808.01025.05786.0122 C25.66992,28,25.79,28,25.91992,28 H27 v4 H18.4231 A1.423,1.423,0,0,0,17,33.42285 v.1543 A1.423,1.423,0,0,0,18.4231,35 H40.769 a1.40954,1.40954,0,0,0,.45-.07324 l4.808,-1.60254 a1.42289,1.42289,0,1,0,-.9,-2.69971 l-3.908,1.30225 A1.40954,1.40954,0,0,1,40.769,32 H39 V27.93994 A8.99772,8.99772,0,0,0,38.01,10 H29.5 V4 Z M4.5,13 A1.5,1.5,0,1,1,6,11.5,1.49789,1.49789,0,0,1,4.5,13 Z M30,32 V28 h6 v4 Z M44,19 H37 V13 a7.76344,7.76344,0,0,1,.97.06006 C41.38,13.46,44,15.96973,44,19 Z"/>
</svg>