<svg
xmlns="http://www.w3.org/2000/svg"
xmlns:xlink="http://www.w3.org/1999/xlink"
version="1.1" x="0px" y="0px"
viewBox="0 0 100 100"
enable-background="new 0 0 100 100"
xml:space="preserve">
<g>
<path d="M29.38,93.845c0-3.559,2.883-6.441,6.439-6.441c3.564,0,6.447,2.883,6.447,6.441c0,3.565-2.883,6.448-6.447,6.448   C32.264,100.293,29.38,97.411,29.38,93.845z"></path>
<path d="M46.137,93.845c0-3.559,2.888-6.441,6.447-6.441c3.561,0,6.443,2.883,6.443,6.441c0,3.565-2.883,6.448-6.443,6.448   C49.025,100.293,46.137,97.411,46.137,93.845z"></path>
<path d="M62.894,93.845c0-3.559,2.882-6.441,6.448-6.441c3.559,0,6.445,2.883,6.445,6.441c0,3.565-2.887,6.448-6.445,6.448   C65.776,100.293,62.894,97.411,62.894,93.845z"></path>
<path d="M91.582,41.635H61.121v17.888H31.789v-5.379l5.164-12.83H16.97l5.155,12.849v5.359h-6.283c0,0-8.272,15.092,0,23.365   l1.665,3.415L7.875,97.698h17.961V86.274h53.016v11.424h12.73V86.274v-26.73V41.635z M87.236,57.107   c0,5.963-0.965,10.798-6.923,10.798h-7.741c-5.959,0-6.927-4.835-6.927-10.798v-1.773c0-5.962,0.968-10.797,6.927-10.797h7.741   c5.958,0,6.923,4.834,6.923,10.797V57.107z"></path>
<!-- <path d="M66.641,4.51c-1.749,0-3.386,0.499-4.777,1.35c0-0.089,0.01-0.174,0.01-0.263c0-3.09-2.507-5.597-5.593-5.597   c-2.528,0-4.66,1.669-5.356,3.974c-1.607-0.645-3.367-1.007-5.201-1.007c-6.156,0-11.371,3.97-13.262,9.481   c-2.601,0.499-4.571,2.784-4.571,5.53c0,1.994,1.039,3.749,2.61,4.75c-1.938,0.987-3.259,2.991-3.259,5.309   c0,0.446,0.047,0.875,0.141,1.293c-0.047-0.004-0.094-0.019-0.141-0.019c-1.933,0-3.503,1.571-3.503,3.504s1.57,3.5,3.503,3.5   c1.717,0,3.146-1.247,3.438-2.883c0.767,0.367,1.623,0.573,2.521,0.573c1.811,0,3.424-0.809,4.524-2.083   c0.861,1.289,2.323,2.14,3.993,2.14c2.037,0,3.767-1.27,4.473-3.057c5.112-0.17,9.533-3.058,11.84-7.28   c0.862,0.724,1.957,1.175,3.166,1.175c1.679,0,3.146-0.837,4.035-2.116c0.461,0.075,0.931,0.122,1.41,0.122   c5.079,0,9.205-4.12,9.205-9.199C75.846,8.63,71.72,4.51,66.641,4.51z"></path> -->
</g></svg>