<svg xmlns="http://www.w3.org/2000/svg" xmlns:xlink="http://www.w3.org/1999/xlink" width="321px" height="413px" version="1.1" viewBox="0 0 321 413">
  <g id="modern-passenger-train-2" fill="#000000" stroke="#000000" transform="translate(2.000000, 0.000000)">
    <path id="train" stroke-width="5" d="M5.38876328,188.742798 C0.273575826,207.609104 5.69470687,241.881748 18.7565748,270.914339 C33.6572952,304.034145 55.2469885,324.528029 79.266114,324.499901 L239.241684,324.312484 C263.267449,324.284326 285.178417,303.755395 300.484094,270.709192 C313.940292,241.656165 319.689333,207.500839 314.614303,188.754134 L264.380516,49.7089731 L264.34629,49.5581032 C259.95797,30.2140227 239.247748,13.757515 218.754384,9.44645462 C200.943365,5.6996621 172.192423,2.5 161.76264,0 L159.26264,2.5 C143.386361,2.5 132.431261,2.96079532 119.92534,4.80802952 C112.513839,5.90277337 105.849838,7.40601813 100.072705,9.36729929 C76.3186949,17.4315573 58.4274636,30.8841703 54.2632892,49.2462474 L54.2317113,49.3854911 L5.3887607,188.742807 Z M68.0369138,138.487369 L85.4540338,36.4968852 L232.764164,36.7142871 L250.144514,138.500209 L68.0369138,138.487369 Z M101.656663,256.457796 L101.632452,256.484513 C92.3671533,266.562148 70.844941,268.404046 53.8136368,260.9341 C36.8195162,253.283153 31.0008008,238.147074 41.5309082,227.472683 C51.1828433,217.417676 71.2512063,215.605264 87.1928402,223.077803 C104.120045,230.804195 111.164349,245.812391 101.656663,256.457796 Z M216.909963,256.519031 L216.885582,256.492151 C207.37721,245.855411 214.42081,230.837746 231.322906,223.105569 C247.28434,215.611104 267.350289,217.404275 276.976751,227.420657 C287.528032,238.101965 281.709909,253.233708 264.699721,260.913127 C247.693501,268.396704 226.175122,266.585707 216.909963,256.519031 Z"/>
    <polygon id="track" stroke-width="4" points="3 411 69.6428571 341 108.071429 341 94.920745 362 222.709455 362 210.512207 341 247.357143 341 314 411 253.357143 411 234.400157 381.746094 83.7582066 381.746094 63.6428571 411"/>
  </g>
</svg>
