<?xml version="1.0" encoding="iso-8859-1"?>
<!-- Generator: Adobe Illustrator 19.0.0, SVG Export Plug-In . SVG Version: 6.00 Build 0)  -->
<svg version="1.1" id="Layer_1" xmlns="http://www.w3.org/2000/svg" xmlns:xlink="http://www.w3.org/1999/xlink" x="0px" y="0px"
	 viewBox="0 0 512 512" style="enable-background:new 0 0 512 512;" xml:space="preserve">
<g>
	<g>
		<path d="M489.739,0H22.261C13.038,0,5.565,7.473,5.565,16.696c0,9.223,7.473,16.696,16.696,16.696h217.044v77.913h-16.696
			c-27.619,0-50.087,22.468-50.087,50.087v16.696h-50.087c-27.619,0-50.087,22.468-50.087,50.087v233.739
			c0,27.619,22.468,50.087,50.087,50.087c6.786,0,249.266,0,267.13,0c27.619,0,50.087-22.468,50.087-50.087V228.174
			c0-27.619-22.468-50.087-50.087-50.087h-50.087v-16.696c0-27.619-22.468-50.087-50.087-50.087h-16.696V33.391h217.043
			c9.217,0,16.696-7.473,16.696-16.696C506.435,7.473,498.956,0,489.739,0z M172.522,345.043h-66.783v-66.783h66.783V345.043z
			 M339.478,278.261h66.783v66.783h-66.783V278.261z M306.087,345.043H205.913v-66.783h100.174V345.043z M289.391,144.696
			c9.206,0,16.696,7.49,16.696,16.696v16.696H205.913v-16.696c0-9.206,7.49-16.696,16.696-16.696H289.391z"/>
	</g>
</g>
<g>
</g>
<g>
</g>
<g>
</g>
<g>
</g>
<g>
</g>
<g>
</g>
<g>
</g>
<g>
</g>
<g>
</g>
<g>
</g>
<g>
</g>
<g>
</g>
<g>
</g>
<g>
</g>
<g>
</g>
</svg>
